<?xml version="1.0" encoding="utf-8"?>
<!-- Generator: Adobe Illustrator 15.1.0, SVG Export Plug-In  -->
<!DOCTYPE svg PUBLIC "-//W3C//DTD SVG 1.1//EN" "http://www.w3.org/Graphics/SVG/1.1/DTD/svg11.dtd" [
	<!ENTITY ns_flows "http://ns.adobe.com/Flows/1.0/">
]>
<svg version="1.1"
	 xmlns="http://www.w3.org/2000/svg" xmlns:xlink="http://www.w3.org/1999/xlink" xmlns:a="http://ns.adobe.com/AdobeSVGViewerExtensions/3.0/"
	 x="0px" y="0px" viewBox="0 0 49 48" enable-background="new 0 0 49 48" xml:space="preserve">
<defs>
</defs>
<path fill="#0087CD" d="M2.875,16.933c-1.47,0-2.875,0-2.875-1.725c0-1.022,0.383-2.62,0.575-3.706
	C1.342,7.348,1.214,6.07,5.368,4.217C12.652,0.895,21.342,0,29.266,0c3.195,0,6.518,0.128,9.648,0.831
	c3.962,0.895,3.643,2.875,5.304,7.285c0.575,1.534-1.47,3.898-2.364,5.304L26.838,36.167l0.127,0.127
	c0.639-0.255,1.47-0.064,1.47,0.895c0,1.278-1.917,3.578-2.684,4.537c-1.15,1.47-3.706,5.24-5.687,5.24
	c-1.598,0-3.451-0.895-3.451-2.684c0-6.326,11.757-21.214,15.911-26.518l6.39-8.179c-10.99,0.191-21.854,1.661-32.333,4.92v0.127
	c0.895,0.192,5.112,0.639,5.112,1.917c0,1.342-2.556,0.256-5.112,0.32L2.875,16.933z"/>
<path fill="#0087CD" d="M40.936,24.692c-0.337,0.487-0.787,1.236-1.199,1.648c-0.187,0.188-0.524,0.15-0.712-0.037
	c-0.562-0.562-0.225-1.723-0.149-2.397c0.149-0.974,0.487-4.383,1.199-5.095c0.711-0.712,5.207-1.761,6.143-0.599
	c5.207,6.255,2.81,22.064-2.959,27.833c-2.51,2.51-5.582,1.835-7.904-0.487c-4.833-4.833-8.279-20.715-9.552-27.683
	c-2.21-0.937-2.697-5.769-1.611-7.005c0.787-0.937,2.959-1.311,3.896-0.375c0.524,0.524,0.711,1.386,0.824,2.098
	c2.809,15.845,6.256,26.185,8.166,28.095c0.6,0.6,1.798,1.274,2.547,0.524c1.723-2.248,3.858-11.8,2.061-17.644L40.936,24.692z"/>
</svg>
